#!OML:ASF F:\VICON\USERDATA\INSTALL\rory3\rory3.ASF
:FULLY-SPECIFIED
:DEGREES
1074
root -0.757798 17.5713 10.4522 -2.21943 4.56873 0.412839
lowerback 5.75906 0.189114 -2.58216
upperback 1.84278 0.161657 3.0834
thorax -1.34457 0.0771303 4.63057
lowerneck -13.3325 0.409708 -10.2882
upperneck 38.7373 3.11086 2.25931
head 15.8175 0.15206 3.34427
rclavicle -5.1684e-015 1.59028e-014
rhumerus -33.2587 -9.64486 -73.8053
rradius 29.7014
rwrist 24.9956
rhand -16.6281 1.35211
rfingers 7.12502
rthumb 9.59415 -28.4094
lclavicle -5.1684e-015 1.59028e-014
lhumerus -33.603 14.9297 79.2824
lradius 36.082
lwrist -4.49675
lhand -10.9431 28.4618
lfingers 7.12502
lthumb 15.0753 57.8928
rfemur -11.2912 -1.68113 26.1117
rtibia 33.3495
rfoot -13.1022 0.318997
rtoes 26.8718
lfemur -28.2083 4.27873 -19.7649
ltibia 88.0237
lfoot -5.05678 -13.1894
ltoes -7.47188
1075
root -0.760783 17.5416 10.5076 -2.27419 4.48154 0.455522
lowerback 5.71779 0.152087 -2.66239
upperback 1.93433 0.106598 3.04608
thorax -1.22158 0.0454703 4.64062
lowerneck -13.3863 0.407036 -10.3555
upperneck 38.7914 3.04065 2.49455
head 15.8529 0.14093 3.45013
rclavicle 1.09332e-015 -2.62396e-014
rhumerus -32.8455 -11.4232 -73.3991
rradius 29.2493
rwrist 26.5563
rhand -16.4629 1.07761
rfingers 7.12502
rthumb 9.75356 -28.6765
lclavicle 1.09332e-015 -2.62396e-014
lhumerus -33.5098 15.4721 79.3224
lradius 35.7704
lwrist -4.15737
lhand -11.2764 28.4927
lfingers 7.12502
lthumb 14.7543 57.9476
rfemur -11.2351 -1.57272 26.1478
rtibia 33.8155
rfoot -13.7505 0.363635
rtoes 25.6168
lfemur -28.6144 4.14288 -19.7103
ltibia 88.2375
lfoot -5.48696 -12.1778
ltoes -8.04259
1076
root -0.764446 17.5188 10.5519 -2.3815 4.38841 0.103621
lowerback 5.85017 0.0856277 -2.31129
upperback 1.97778 0.0361693 3.07663
thorax -1.24391 0.010287 4.47782
lowerneck -13.3995 0.446008 -10.2188
upperneck 38.8258 3.03532 2.54592
head 15.8714 0.162392 3.44884
rclavicle -2.48481e-016 -1.82882e-014
rhumerus -32.4688 -12.7945 -73.2393
rradius 28.8568
rwrist 27.4545
rhand -16.5641 0.664619
rfingers 7.12502
rthumb 9.6559 -29.0941
lclavicle -2.48481e-016 -1.82882e-014
lhumerus -33.453 15.727 79.3254
lradius 35.4295
lwrist -3.56226
lhand -11.542 28.1659
lfingers 7.12502
lthumb 14.4983 57.6394
rfemur -11.2369 -1.32727 26.612
rtibia 34.2923
rfoot -14.1314 0.16903
rtoes 24.8491
lfemur -29.0974 4.05877 -19.2054
ltibia 88.3783
lfoot -5.57214 -11.2201
ltoes -7.70047
1077
root -0.76615 17.4984 10.5873 -2.51751 4.3262 -0.35181
lowerback 6.084 0.0243668 -1.84147
upperback 2.03809 -0.0193715 3.14493
thorax -1.30755 -0.0168337 4.28679
lowerneck -13.4556 0.425063 -10.1611
upperneck 38.8376 2.97114 2.59122
head 15.8947 0.147434 3.44954
rclavicle 2.15681e-014 -1.51076e-014
rhumerus -32.0399 -13.7365 -73.2051
rradius 28.5177
rwrist 27.7779
rhand -16.614 0.348902
rfingers 7.12502
rthumb 9.60781 -29.412
lclavicle 2.15681e-014 -1.51076e-014
lhumerus -33.2497 15.8806 79.4199
lradius 34.9385
lwrist -3.03556
lhand -11.4892 28.1432
lfingers 7.12502
lthumb 14.5492 57.613
rfemur -11.1928 -1.02997 27.1483
rtibia 34.6458
rfoot -14.3479 0.00389962
rtoes 24.5933
lfemur -29.6105 3.9443 -18.6133
ltibia 88.4012
lfoot -5.55502 -10.394
ltoes -8.06747
1078
root -0.764256 17.4897 10.6296 -2.66606 4.25758 -0.663919
lowerback 6.30223 0.0081115 -1.52023
upperback 2.05216 -0.020981 3.20709
thorax -1.41491 -0.0159073 4.17046
lowerneck -13.2952 0.377609 -10.1894
upperneck 38.792 2.86654 2.62852
head 15.84 0.107218 3.44836
rclavicle -7.45443e-016 2.78299e-014
rhumerus -31.8964 -14.2749 -73.1933
rradius 28.4569
rwrist 27.4574
rhand -16.8722 -0.0576435
rfingers 7.12502
rthumb 9.35863 -29.8299
lclavicle -7.45443e-016 2.78299e-014
lhumerus -33.0951 15.8264 79.6692
lradius 34.3168
lwrist -2.57611
lhand -11.412 28.5413
lfingers 7.12502
lthumb 14.6236 58.0057
rfemur -10.9529 -0.806196 27.4727
rtibia 34.8209
rfoot -14.4972 0.0894287
rtoes 24.5824
lfemur -30.0402 3.71266 -18.1872
ltibia 88.2449
lfoot -5.64746 -9.6654
ltoes -8.1853
1079
root -0.759062 17.5024 10.6841 -2.78967 4.24341 -0.755163
lowerback 6.29444 -0.0196947 -1.42357
upperback 2.14415 -0.0535956 3.22098
thorax -1.31317 -0.0348712 4.13198
lowerneck -13.2399 0.31744 -10.2431
upperneck 38.7352 2.73707 2.7339
head 15.8046 0.0618441 3.47933
rclavicle 1.06847e-014 -1.43125e-014
rhumerus -31.751 -14.496 -73.3011
rradius 28.5987
rwrist 26.599
rhand -17.2842 -0.486894
rfingers 7.12502
rthumb 8.96115 -30.2766
lclavicle 1.06847e-014 -1.43125e-014
lhumerus -32.8522 15.7579 79.9727
lradius 33.6421
lwrist -2.35739
lhand -11.4376 28.4772
lfingers 7.12502
lthumb 14.5989 57.9434
rfemur -10.519 -0.807851 27.5147
rtibia 34.7581
rfoot -14.5858 0.345497
rtoes 24.5101
lfemur -30.3215 3.30698 -18.0551
ltibia 87.8364
lfoot -5.76529 -8.8989
ltoes -7.51926
1080
root -0.751067 17.5133 10.7422 -2.83433 4.3286 -0.745357
lowerback 6.1095 -0.0791112 -1.3714
upperback 2.26802 -0.133308 3.16926
thorax -1.07638 -0.079551 4.05223
lowerneck -13.3213 0.233228 -10.242
upperneck 38.7093 2.57456 2.83742
head 15.8217 0.00738152 3.49888
rclavicle 1.44119e-015 -3.57812e-014
rhumerus -31.5727 -14.576 -73.5202
rradius 28.8416
rwrist 25.4304
rhand -17.7042 -0.753685
rfingers 7.12502
rthumb 8.55584 -30.5603
lclavicle 1.44119e-015 -3.57812e-014
lhumerus -32.4565 15.7013 80.229
lradius 32.8255
lwrist -2.38667
lhand -11.5775 28.0126
lfingers 7.12502
lthumb 14.4641 57.4885
rfemur -10.0498 -0.928888 27.4415
rtibia 34.4359
rfoot -14.75 0.554842
rtoes 24.0957
lfemur -30.472 2.83237 -18.117
ltibia 87.2019
lfoot -5.84249 -7.82599
ltoes -7.72331
